<svg width="1080" height="1080" viewBox="0 0 1080 1080" fill="none" xmlns="http://www.w3.org/2000/svg">
<rect width="1080" height="1080" fill="url(#paint0_linear_9_65)"/>
<ellipse cx="407.467" cy="416.122" rx="20.4667" ry="20.0163" fill="#F6E494"/>
<ellipse cx="673.533" cy="416.122" rx="20.4667" ry="20.0163" fill="#F6E494"/>
<ellipse cx="451.811" cy="372.754" rx="20.4667" ry="20.0163" fill="#F6E494"/>
<ellipse cx="451.811" cy="416.122" rx="20.4667" ry="20.0163" fill="#F6E494"/>
<ellipse cx="451.811" cy="459.491" rx="20.4667" ry="20.0163" fill="#F6E494"/>
<ellipse cx="451.811" cy="502.859" rx="20.4667" ry="20.0163" fill="#F6E494"/>
<ellipse cx="451.811" cy="546.228" rx="20.4667" ry="20.0163" fill="#F6E494"/>
<ellipse cx="629.189" cy="546.228" rx="20.4667" ry="20.0163" fill="#F6E494"/>
<ellipse cx="629.189" cy="372.754" rx="20.4667" ry="20.0163" fill="#F6E494"/>
<ellipse cx="629.189" cy="416.122" rx="20.4667" ry="20.0163" fill="#F6E494"/>
<ellipse cx="629.189" cy="459.491" rx="20.4667" ry="20.0163" fill="#F6E494"/>
<ellipse cx="629.189" cy="502.859" rx="20.4667" ry="20.0163" fill="#F6E494"/>
<ellipse cx="496.156" cy="329.385" rx="20.4667" ry="20.0163" fill="#F6E494"/>
<ellipse cx="496.156" cy="372.754" rx="20.4667" ry="20.0163" fill="#F6E494"/>
<ellipse cx="496.156" cy="416.122" rx="20.4667" ry="20.0163" fill="#F6E494"/>
<ellipse cx="496.156" cy="459.491" rx="20.4667" ry="20.0163" fill="#F6E494"/>
<ellipse cx="496.156" cy="502.859" rx="20.4667" ry="20.0163" fill="#F6E494"/>
<ellipse cx="540.5" cy="286.016" rx="20.4667" ry="20.0163" fill="#F6E494"/>
<ellipse cx="540.5" cy="329.385" rx="20.4667" ry="20.0163" fill="#F6E494"/>
<ellipse cx="540.5" cy="372.754" rx="20.4667" ry="20.0163" fill="#F6E494"/>
<ellipse cx="540.5" cy="416.122" rx="20.4667" ry="20.0163" fill="#F6E494"/>
<ellipse cx="540.5" cy="459.491" rx="20.4667" ry="20.0163" fill="#F6E494"/>
<ellipse cx="584.844" cy="329.385" rx="20.4667" ry="20.0163" fill="#F6E494"/>
<ellipse cx="584.844" cy="372.754" rx="20.4667" ry="20.0163" fill="#F6E494"/>
<ellipse cx="584.844" cy="416.122" rx="20.4667" ry="20.0163" fill="#F6E494"/>
<ellipse cx="584.844" cy="459.491" rx="20.4667" ry="20.0163" fill="#F6E494"/>
<ellipse cx="584.844" cy="502.859" rx="20.4667" ry="20.0163" fill="#F6E494"/>
<ellipse cx="546" cy="708" rx="17" ry="16" fill="#F6E494"/>
<g clip-path="url(#clip0_9_65)">
<path d="M95.2634 646.015C93.4611 646.015 92 644.586 92 642.824V633.249C92 631.486 93.4611 630.057 95.2634 630.057H134.424C136.226 630.057 137.687 631.486 137.687 633.249V642.824C137.687 644.586 136.226 646.015 134.424 646.015H132.792C130.99 646.015 129.529 647.444 129.529 649.207V706.655C129.529 708.418 130.99 709.847 132.792 709.847H134.424C136.226 709.847 137.687 711.276 137.687 713.038V722.613C137.687 724.376 136.226 725.805 134.424 725.805H95.2634C93.4611 725.805 92 724.376 92 722.613V713.038C92 711.276 93.4611 709.847 95.2634 709.847H98.5268C100.329 709.847 101.79 708.418 101.79 706.655V706.238V649.207C101.79 647.444 100.329 646.015 98.5268 646.015H95.2634Z" fill="#F6E494"/>
<path d="M144.214 669.952C142.412 669.952 140.951 668.523 140.951 666.76V655.59C140.951 654.709 141.681 653.994 142.582 653.994H172.799C174.134 653.994 175.216 655.053 175.216 656.359C175.216 658.162 177.197 659.301 178.808 658.426L189.162 652.8C189.647 652.537 190.193 652.398 190.747 652.398H197.658C197.925 652.398 198.191 652.43 198.45 652.494L203.896 653.825C204.351 653.937 204.776 654.143 205.143 654.429L210.771 658.833C211.933 659.742 213.577 659.767 214.768 658.894L219.272 655.59L224.928 651.441C225.493 651.027 226.181 650.803 226.887 650.803H233.5C233.804 650.803 234.105 650.844 234.397 650.925L244.566 653.767C245.099 653.916 245.585 654.195 245.977 654.579L253.373 661.813C253.483 661.92 253.584 662.034 253.677 662.155L258.115 667.942C258.325 668.216 258.489 668.522 258.6 668.848L259.897 672.652C260.008 672.978 260.064 673.319 260.064 673.662V706.302C260.064 707.635 261.17 708.716 262.533 708.716C263.899 708.716 265.005 709.801 265.002 711.137L264.964 724.209C264.961 725.091 264.23 725.805 263.328 725.805H231.5C229.698 725.805 228.237 724.376 228.237 722.613V710.716C228.237 709.611 229.152 708.716 230.281 708.716C231.41 708.716 232.326 707.821 232.326 706.716V676.061C232.326 675.215 231.982 674.403 231.37 673.805L230.018 672.483C229.406 671.884 228.576 671.548 227.711 671.548H221.892C221.248 671.548 220.618 671.734 220.082 672.084L217.462 673.792C216.554 674.384 216.009 675.38 216.009 676.448V706.655C216.009 707.536 216.739 708.251 217.64 708.251H219.272C221.074 708.251 222.535 709.68 222.535 711.443V722.613C222.535 724.376 221.074 725.805 219.272 725.805H188.27C186.468 725.805 185.007 724.376 185.007 722.613V713.038C185.007 711.276 186.468 709.847 188.27 709.847H189.902C190.803 709.847 191.533 709.132 191.533 708.251V674.795C191.533 673.759 191.02 672.788 190.155 672.19L189.117 671.471C188.566 671.089 187.907 670.884 187.231 670.884H181.158C180.477 670.884 179.814 671.092 179.26 671.479L176.582 673.352C175.725 673.951 175.216 674.918 175.216 675.948V707.453C175.216 708.775 176.312 709.847 177.664 709.847C179.016 709.847 180.111 710.918 180.111 712.24V722.613C180.111 724.376 178.65 725.805 176.848 725.805H145.846C144.044 725.805 142.582 724.376 142.582 722.613V713.038C142.582 711.276 144.044 709.847 145.846 709.847H147.478C149.28 709.847 150.741 708.418 150.741 706.655V673.144C150.741 671.381 149.28 669.952 147.478 669.952H144.214Z" fill="#F6E494"/>
<path d="M354.703 709.847C356.505 709.847 357.966 708.418 357.966 706.655V669.952C357.966 668.189 356.505 666.76 354.703 666.76H348.176C346.373 666.76 344.912 665.332 344.912 663.569V657.186C344.912 655.423 346.373 653.994 348.176 653.994H397.127C398.929 653.994 400.39 655.423 400.39 657.186V671.548C400.39 673.311 398.929 674.739 397.127 674.739H387.056C386.191 674.739 385.361 675.076 384.749 675.674L383.397 676.996C382.785 677.595 382.441 678.407 382.441 679.253V706.655C382.441 708.418 383.902 709.847 385.705 709.847H388.968C390.77 709.847 392.231 711.276 392.231 713.038V722.613C392.231 724.376 390.77 725.805 388.968 725.805H351.439C350.538 725.805 349.807 725.09 349.807 724.209V713.038C349.807 711.276 351.268 709.847 353.071 709.847H354.703Z" fill="#F6E494"/>
<path d="M481.975 652.398C483.776 652.398 485.238 650.969 485.238 649.207V639.632C485.238 637.869 486.7 636.441 488.501 636.441H504.818C506.62 636.441 508.082 637.869 508.082 639.632V650.412C508.082 652.175 509.544 653.604 511.345 653.604H517.872C519.673 653.604 521.135 655.033 521.135 656.795V666.76C521.135 668.523 519.673 669.952 517.872 669.952H511.345C510.444 669.952 509.713 670.667 509.713 671.548V703.087C509.713 704.296 510.412 705.401 511.518 705.942L512.288 706.318C512.742 706.54 513.241 706.655 513.747 706.655H516.521C517.386 706.655 518.214 706.992 518.828 707.59L520.179 708.912C520.793 709.51 521.135 710.322 521.135 711.169V721.017C521.135 722.78 519.673 724.209 517.872 724.209H516.24H498.921C498.504 724.209 498.092 724.131 497.707 723.981L490.756 721.26C490.345 721.1 489.973 720.86 489.66 720.554L485.783 716.763C485.424 716.412 485.153 715.985 484.993 715.515L483.773 711.934C483.662 711.609 483.606 711.268 483.606 710.925V705.059V673.144C483.606 671.381 482.144 669.952 480.343 669.952H478.711C476.91 669.952 475.448 668.523 475.448 666.76V655.59C475.448 653.827 476.91 652.398 478.711 652.398H481.975Z" fill="#F6E494"/>
<path fill-rule="evenodd" clip-rule="evenodd" d="M291.876 654.53C292.412 654.181 293.042 653.994 293.686 653.994H314.771C315.278 653.994 315.778 654.11 316.231 654.331L321.595 656.954C321.909 657.108 322.195 657.309 322.443 657.552L326.964 661.973L331.695 666.6C331.804 666.707 331.905 666.821 331.998 666.942L336.101 672.292C336.525 672.845 336.754 673.517 336.754 674.207V698.676V705.5C336.754 706.246 336.486 706.969 335.997 707.543L328.84 715.944C328.677 716.134 328.493 716.305 328.291 716.454L322.304 720.845C322.147 720.96 321.981 721.06 321.805 721.146L316.231 723.872C315.778 724.094 315.278 724.209 314.771 724.209H295.1C294.594 724.209 294.094 724.094 293.641 723.872L288.277 721.249C287.963 721.095 287.677 720.894 287.429 720.651L282.908 716.23L276.545 710.007C276.436 709.9 276.335 709.786 276.242 709.665L272.139 704.315C271.715 703.762 271.486 703.09 271.486 702.4V675.493C271.486 674.997 271.604 674.509 271.831 674.066L274.513 668.819C274.67 668.513 274.876 668.233 275.124 667.99L279.645 663.569L282.68 660.601C282.831 660.452 282.998 660.319 283.177 660.202L291.876 654.53ZM309.244 673.367C309.092 673.219 308.925 673.085 308.746 672.968L304.942 670.488C304.406 670.138 303.776 669.952 303.132 669.952H302.208C301.343 669.952 300.513 670.288 299.901 670.887L297.593 673.144L294.875 675.803C294.517 676.153 294.246 676.58 294.086 677.05L292.866 680.631C292.755 680.957 292.698 681.297 292.698 681.641V697.71C292.698 698.34 292.889 698.956 293.246 699.48L295.962 703.464L298.604 707.34C299.006 707.93 299.599 708.373 300.287 708.597L303.088 709.51C303.758 709.729 304.482 709.729 305.152 709.51L307.953 708.597C308.641 708.373 309.234 707.93 309.636 707.34L312.279 703.464L314.994 699.48C315.351 698.956 315.542 698.34 315.542 697.71V682.089C315.542 681.459 315.351 680.843 314.994 680.319L312.458 676.598C312.339 676.423 312.202 676.26 312.05 676.112L309.244 673.367Z" fill="#F6E494"/>
<path fill-rule="evenodd" clip-rule="evenodd" d="M410.18 663.569C410.18 662.564 410.664 661.619 411.485 661.016L416.707 657.186L420.78 654.53C421.315 654.181 421.945 653.994 422.591 653.994H445.307C445.813 653.994 446.312 654.11 446.766 654.331L455.394 658.55C455.708 658.703 455.995 658.905 456.243 659.148L460.763 663.569L465.429 668.133C465.583 668.281 465.716 668.444 465.837 668.619L468.373 672.34C468.732 672.864 468.921 673.48 468.921 674.11V705.059C468.921 706.822 470.383 708.251 472.184 708.251H475.448C476.349 708.251 477.08 708.966 477.08 709.847V722.613C477.08 723.494 476.349 724.209 475.448 724.209H452.989C451.752 724.209 450.623 723.526 450.072 722.445L449.53 721.388C449.406 721.142 449.24 720.918 449.041 720.724C448.244 719.946 447.03 719.753 446.025 720.245L445.222 720.638C444.713 720.887 444.279 721.26 443.966 721.723L442.151 724.383C441.545 725.271 440.526 725.805 439.436 725.805H422.506C421.915 725.805 421.334 725.647 420.825 725.35L413.788 721.219C413.559 721.085 413.348 720.924 413.16 720.74L408.777 716.453C408.625 716.305 408.488 716.142 408.369 715.967L405.833 712.247C405.476 711.722 405.285 711.106 405.285 710.476V699.56C405.285 698.982 405.446 698.414 405.75 697.918L409.851 691.233C410.069 690.879 410.354 690.57 410.691 690.322L416.18 686.297C416.528 686.041 416.924 685.857 417.346 685.754L422.845 684.41C423.103 684.346 423.367 684.314 423.635 684.314H431.392H441.182C442.984 684.314 444.446 682.885 444.446 681.123V674.739C444.446 672.977 442.984 671.548 441.182 671.548H430.531C430.025 671.548 429.525 671.663 429.072 671.885L427.47 672.668C426.84 672.977 426.327 673.477 426.011 674.095L425.143 675.79C424.96 676.149 424.865 676.544 424.865 676.945C424.865 678.371 423.684 679.527 422.225 679.527H414.214C413.707 679.527 413.208 679.412 412.755 679.19L411.984 678.813C410.878 678.273 410.18 677.167 410.18 675.959V663.569ZM443.489 705.994C444.103 705.396 444.446 704.584 444.446 703.737V698.209C444.446 697.486 444.152 696.794 443.63 696.283C443.108 695.772 442.4 695.485 441.659 695.485H436.007C435.142 695.485 434.313 695.821 433.699 696.419L433.399 696.714C433.151 696.957 432.942 697.237 432.786 697.544L431.738 699.598C431.51 700.041 431.392 700.53 431.392 701.026V705.059C431.392 706.822 432.854 708.251 434.656 708.251H439.831C440.696 708.251 441.525 707.915 442.138 707.316L443.489 705.994Z" fill="#F6E494"/>
</g>
<g clip-path="url(#clip1_9_65)">
<path d="M579.189 640.766C578.637 640.766 578.189 640.319 578.189 639.766V629C578.189 628.448 578.637 628 579.189 628H650.615C651.167 628 651.615 628.448 651.615 629V650.937C651.615 651.489 651.167 651.937 650.615 651.937H637.93C637.377 651.937 636.93 651.489 636.93 650.937V641.766C636.93 641.214 636.482 640.766 635.93 640.766H603.664C603.112 640.766 602.664 641.214 602.664 641.766V666.895C602.664 667.447 603.112 667.895 603.664 667.895H637.561C638.114 667.895 638.561 668.342 638.561 668.895V682.853C638.561 683.405 638.114 683.853 637.561 683.853H605.296C604.744 683.853 604.296 684.3 604.296 684.853V713.173C604.296 713.725 604.744 714.173 605.296 714.173H640.825C641.377 714.173 641.825 713.725 641.825 713.173V702.012C641.825 701.46 642.273 701.012 642.825 701.012H652.247C652.799 701.012 653.247 701.46 653.247 702.012V722.747C653.247 723.3 652.799 723.747 652.247 723.747H579.189C578.637 723.747 578.189 723.3 578.189 722.747V713.577C578.189 713.024 578.637 712.577 579.189 712.577H586.979C587.531 712.577 587.979 712.129 587.979 711.577V641.766C587.979 641.214 587.531 640.766 586.979 640.766H579.189Z" fill="#FEBC4B"/>
<path d="M719.845 659.622C720.038 659.81 720.146 660.067 720.146 660.336V674.874C720.146 675.426 719.698 675.874 719.146 675.874H709.724C709.172 675.874 708.724 675.426 708.724 674.874V669.799C708.724 669.598 708.664 669.402 708.551 669.236L705.759 665.14C705.572 664.867 705.263 664.703 704.932 664.703H688.041C687.71 664.703 687.401 664.867 687.215 665.14L684.423 669.236C684.309 669.402 684.249 669.598 684.249 669.799V675.25C684.249 675.631 684.466 675.98 684.81 676.148L694.039 680.661L703.829 685.448L713.516 688.606C713.585 688.629 713.651 688.658 713.713 688.695L721.584 693.314C721.712 693.388 721.821 693.491 721.904 693.613L724.867 697.96C724.981 698.126 725.041 698.322 725.041 698.523V706.092C725.041 706.16 725.034 706.227 725.021 706.293L723.471 713.872C723.431 714.068 723.333 714.247 723.19 714.387L718.514 718.96L712.148 723.63C712.042 723.707 711.922 723.763 711.794 723.795L705.578 725.314C705.5 725.333 705.42 725.343 705.34 725.343H692.407H682.738C682.658 725.343 682.578 725.333 682.5 725.314L676.09 723.747L671.417 722.224C671.271 722.176 671.138 722.096 671.028 721.988L668.233 719.254C668.04 719.066 667.932 718.808 667.932 718.539V710.981V707.789V702.406C667.932 701.854 668.38 701.406 668.932 701.406H678.354C678.906 701.406 679.354 701.854 679.354 702.406V706.068C679.354 706.151 679.364 706.234 679.385 706.315L680.871 712.129C680.944 712.413 681.137 712.651 681.401 712.78L684.041 714.071C684.178 714.138 684.328 714.173 684.48 714.173H695.55C695.63 714.173 695.71 714.163 695.788 714.144L701.825 712.668C702.065 712.609 702.274 712.464 702.414 712.26L705.287 708.044C705.4 707.878 705.461 707.682 705.461 707.481V700.352C705.461 700.014 705.29 699.699 705.007 699.515L700.709 696.712C700.614 696.65 700.51 696.605 700.4 696.578L694.039 695.023L685.881 691.832L679.547 690.283C679.419 690.252 679.299 690.196 679.193 690.118L672.827 685.448L668.233 680.955C668.04 680.767 667.932 680.509 667.932 680.24V665.042C667.932 664.822 668.004 664.608 668.138 664.434L672.74 658.433C672.798 658.358 672.866 658.292 672.942 658.236L679.09 653.726C679.261 653.6 679.468 653.533 679.681 653.533H713.212C713.473 653.533 713.724 653.635 713.911 653.818L719.845 659.622Z" fill="#FEBC4B"/>
<path d="M729.305 664.703C728.752 664.703 728.305 664.255 728.305 663.703V654.533C728.305 653.98 728.752 653.533 729.305 653.533H738.726C739.279 653.533 739.726 653.085 739.726 652.533V636.979C739.726 636.427 740.174 635.979 740.726 635.979H755.043C755.596 635.979 756.043 636.427 756.043 636.979V652.533C756.043 653.085 756.491 653.533 757.043 653.533H769.729C770.281 653.533 770.729 653.98 770.729 654.533V663.703C770.729 664.255 770.281 664.703 769.729 664.703H758.266C757.713 664.703 757.266 665.151 757.266 665.703V708.898C757.266 709.205 757.407 709.496 757.65 709.685L759.224 710.916C759.279 710.959 759.338 710.996 759.401 711.027L762.362 712.475C762.499 712.542 762.649 712.577 762.802 712.577H771.36C771.913 712.577 772.36 713.024 772.36 713.577V724.343C772.36 724.895 771.913 725.343 771.36 725.343H757.368C757.3 725.343 757.232 725.336 757.166 725.322L749.702 723.785C749.58 723.76 749.463 723.712 749.358 723.644L744.765 720.649C744.67 720.587 744.586 720.51 744.517 720.42L739.933 714.442C739.799 714.267 739.726 714.053 739.726 713.833V665.703C739.726 665.151 739.279 664.703 738.726 664.703H729.305Z" fill="#FEBC4B"/>
<path d="M864.367 653.533C864.919 653.533 865.367 653.085 865.367 652.533V636.979C865.367 636.427 865.814 635.979 866.367 635.979H879.052C879.604 635.979 880.052 636.427 880.052 636.979V652.533C880.052 653.085 880.5 653.533 881.052 653.533H893.737C894.29 653.533 894.737 653.98 894.737 654.533V662.107C894.737 662.66 894.29 663.107 893.737 663.107H881.052C880.5 663.107 880.052 663.555 880.052 664.107V710.74C880.052 710.898 880.09 711.054 880.162 711.195L881.532 713.876C881.63 714.068 881.789 714.224 881.983 714.319L884.739 715.667C884.876 715.734 885.026 715.768 885.178 715.768H897.001C897.553 715.768 898.001 716.216 898.001 716.768V721.911C898.001 722.069 897.963 722.225 897.891 722.366L896.557 724.975C896.437 725.211 896.228 725.389 895.976 725.471L891.625 726.89C891.525 726.922 891.42 726.939 891.315 726.939H881.843C881.737 726.939 881.633 726.922 881.533 726.89L876.914 725.384C876.831 725.357 876.751 725.319 876.678 725.271L871.894 722.151L867.288 719.148C867.1 719.026 866.959 718.845 866.887 718.633L865.42 714.329C865.385 714.225 865.367 714.117 865.367 714.007V664.107C865.367 663.555 864.919 663.107 864.367 663.107H854.945C854.393 663.107 853.945 662.66 853.945 662.107V654.533C853.945 653.98 854.393 653.533 854.945 653.533H864.367Z" fill="#FEBC4B"/>
<path fill-rule="evenodd" clip-rule="evenodd" d="M795.836 677.469C796.388 677.469 796.836 677.022 796.836 676.469V671.395C796.836 671.194 796.896 670.997 797.009 670.831L799.95 666.518C800.048 666.374 800.181 666.259 800.337 666.183L803.362 664.703L808.106 663.157C808.207 663.124 808.311 663.107 808.416 663.107H811.362C811.467 663.107 811.572 663.124 811.672 663.157L816.416 664.703L819.442 666.183C819.597 666.259 819.731 666.374 819.829 666.518L822.866 670.974C822.917 671.048 822.957 671.129 822.987 671.215L824.521 675.717C824.556 675.821 824.574 675.93 824.574 676.039V679.065V679.661C824.574 680.213 824.127 680.661 823.574 680.661H803.594C803.442 680.661 803.291 680.696 803.155 680.763L796.98 683.782C796.885 683.829 796.797 683.891 796.72 683.965L791.941 688.64L788.748 691.762C788.701 691.808 788.658 691.859 788.621 691.914L785.588 696.364C785.474 696.53 785.414 696.726 785.414 696.927V701.406V716.943C785.414 717.212 785.522 717.47 785.715 717.658L788.677 720.556L791.825 723.635C791.902 723.709 791.989 723.771 792.085 723.818L794.996 725.241C795.133 725.308 795.283 725.343 795.435 725.343H801.731H816.119C816.313 725.343 816.502 725.287 816.665 725.181L821.311 722.151L824.43 720.627C824.526 720.58 824.613 720.518 824.69 720.443L825.915 719.245C826.102 719.062 826.352 718.96 826.614 718.96H826.838C827.39 718.96 827.838 719.408 827.838 719.96V721.911C827.838 722.069 827.875 722.225 827.947 722.366L829.191 724.798C829.362 725.133 829.706 725.343 830.081 725.343H831.101H839.26H846.418C846.97 725.343 847.418 724.895 847.418 724.343V715.173C847.418 714.62 846.97 714.173 846.418 714.173H843.523C842.971 714.173 842.523 713.725 842.523 713.173V672.213C842.523 672.037 842.477 671.864 842.389 671.712L839.26 666.299L837.702 663.253C837.653 663.156 837.589 663.069 837.511 662.993L835.996 661.511L832.733 658.32L829.585 655.241C829.508 655.166 829.421 655.104 829.325 655.058L826.206 653.533L823.151 652.038C823.014 651.972 822.864 651.937 822.711 651.937H816.416H795.612C795.35 651.937 795.099 652.039 794.912 652.222L791.941 655.128L788.677 658.32L787.162 659.801C787.085 659.877 787.02 659.965 786.971 660.061L785.523 662.893C785.451 663.034 785.414 663.19 785.414 663.348V676.469C785.414 677.022 785.862 677.469 786.414 677.469H795.836ZM826.206 694.427C826.206 693.875 825.758 693.427 825.206 693.427H803.891C803.56 693.427 803.251 693.591 803.065 693.864L800.155 698.132C800.118 698.187 800.075 698.238 800.028 698.284L797.136 701.112C796.944 701.3 796.836 701.558 796.836 701.827V707.369C796.836 707.638 796.944 707.895 797.136 708.084L798.467 709.385L801.439 712.292C801.626 712.474 801.877 712.577 802.138 712.577H814.553C814.705 712.577 814.855 712.542 814.992 712.475L817.97 711.019C818.022 710.994 818.071 710.964 818.117 710.931L822.459 707.789L825.855 704.897C826.078 704.707 826.206 704.429 826.206 704.136V694.427Z" fill="#FEBC4B"/>
<path fill-rule="evenodd" clip-rule="evenodd" d="M927.643 653.533C927.465 653.533 927.29 653.58 927.137 653.67L919.213 658.32L912.801 663.023C912.725 663.079 912.657 663.145 912.599 663.221L907.915 669.328C907.833 669.435 907.774 669.558 907.74 669.689L906.19 675.752C906.17 675.833 906.159 675.916 906.159 675.999V702.761C906.159 702.919 906.197 703.076 906.269 703.216L909.422 709.385L914.253 717.259C914.296 717.329 914.347 717.393 914.406 717.451L919.046 721.988C919.155 722.096 919.289 722.176 919.435 722.224L924.108 723.747L930.517 725.314C930.595 725.333 930.675 725.343 930.755 725.343H937.161H950.215C948.928 725.343 953.875 723.277 956.622 722.199C956.702 722.167 956.777 722.126 956.847 722.074L963.268 717.364L964.599 716.062C964.792 715.874 964.9 715.617 964.9 715.348V711.707C964.9 711.274 964.622 710.89 964.21 710.756L960.156 709.434C960.056 709.402 959.951 709.385 959.846 709.385H953.806C953.593 709.385 953.386 709.453 953.214 709.579L947.215 713.979C947.044 714.105 946.837 714.173 946.624 714.173H934.195C934.001 714.173 933.811 714.116 933.649 714.01L929.085 711.035C929.03 710.999 928.979 710.958 928.932 710.912L925.739 707.789L922.476 704.598L919.513 701.7C919.321 701.512 919.213 701.255 919.213 700.985V694.427C919.213 693.875 919.66 693.427 920.213 693.427H963.9C964.452 693.427 964.9 692.98 964.9 692.427V669.799C964.9 669.598 964.84 669.402 964.726 669.236L961.693 664.785C961.655 664.731 961.613 664.68 961.566 664.634L956.742 659.916L953.478 656.724L950.506 653.818C950.319 653.635 950.068 653.533 949.807 653.533H927.643ZM922.601 674.115C922.518 674.223 922.459 674.345 922.425 674.476L921.163 679.413C921.002 680.046 921.479 680.661 922.132 680.661H947.583C948.135 680.661 948.583 680.213 948.583 679.661V674.699C948.583 674.43 948.475 674.172 948.282 673.984L943.759 669.559C943.712 669.514 943.66 669.472 943.605 669.437L939.042 666.461C938.879 666.355 938.69 666.299 938.496 666.299H932.425C932.32 666.299 932.215 666.316 932.115 666.348L927.666 667.799C927.474 667.861 927.305 667.981 927.182 668.141L922.601 674.115Z" fill="#FEBC4B"/>
</g>
<defs>
<linearGradient id="paint0_linear_9_65" x1="540" y1="0" x2="124.349" y2="1621.9" gradientUnits="userSpaceOnUse">
<stop stop-color="#145544"/>
<stop offset="0.970592" stop-color="#2DBB95"/>
<stop offset="1" stop-color="#145544"/>
</linearGradient>
<clipPath id="clip0_9_65">
<rect width="437.294" height="98.9389" fill="white" transform="translate(92 628.462)"/>
</clipPath>
<clipPath id="clip1_9_65">
<rect width="395" height="99" fill="white" transform="translate(570 628)"/>
</clipPath>
</defs>
</svg>
